<?xml version="1.0" standalone="no"?>
<!DOCTYPE svg PUBLIC "-//W3C//DTD SVG 20010904//EN"
 "http://www.w3.org/TR/2001/REC-SVG-20010904/DTD/svg10.dtd">
<svg version="1.0" xmlns="http://www.w3.org/2000/svg"
 width="450.000000pt" height="248.000000pt" viewBox="0 0 450.000000 248.000000"
 preserveAspectRatio="xMidYMid meet">
<metadata>
Created by potrace 1.10, written by Peter Selinger 2001-2011
</metadata>
<g transform="translate(0.000000,248.000000) scale(0.050000,-0.050000)"
fill="#000000" stroke="none">
<path d="M560 2700 l0 -1820 3900 0 3900 0 0 1820 0 1820 -3900 0 -3900 0 0
-1820z m424 1325 c5 -80 12 -95 46 -95 34 0 41 15 46 95 9 140 64 133 64 -8 0
-157 -91 -228 -183 -144 -48 43 -54 247 -8 247 20 0 31 -28 35 -95z m323 20
l53 -75 0 75 c0 53 9 75 30 75 24 0 30 -29 30 -141 0 -156 -27 -166 -117 -44
l-42 55 0 -63 c-1 -37 -13 -67 -31 -74 -25 -10 -30 12 -30 128 0 164 25 179
107 64z m365 -53 c26 -66 48 -126 48 -135 0 -29 -61 -18 -73 13 -6 17 -29 30
-51 30 -21 0 -52 -13 -69 -30 -76 -76 -84 -26 -22 135 59 153 101 150 167 -13z
m257 97 c60 -61 16 -169 -68 -169 -20 0 -41 -18 -47 -40 -25 -95 -74 -20 -74
112 l0 128 79 0 c44 0 92 -14 110 -31z m228 -1007 c48 -25 126 -81 175 -126
l87 -80 92 81 c412 362 949 147 1052 -422 l24 -135 98 0 c70 0 96 -7 90 -25
-6 -19 -138 -28 -527 -37 -558 -13 -628 -22 -628 -79 0 -53 85 -105 310 -188
246 -91 297 -151 198 -233 -81 -67 -36 -78 314 -78 264 0 339 -6 333 -25 -6
-18 -74 -27 -229 -31 l-221 -5 -97 -123 c-170 -212 -705 -636 -804 -636 -57 0
-418 257 -593 423 -92 86 -181 157 -199 157 -17 0 -51 19 -73 41 -36 36 -75
44 -260 53 -270 15 -324 66 -69 66 l150 0 0 310 0 310 -150 0 c-120 0 -150 6
-150 30 0 23 24 30 97 30 l98 0 10 125 c41 483 491 791 872 597z m2752 -190
c58 -25 111 -82 111 -121 0 -23 -79 -10 -136 23 -116 66 -228 -54 -154 -166
36 -56 131 -65 170 -18 21 26 16 30 -38 30 -48 0 -62 9 -62 39 0 43 42 59 130
50 33 -3 72 -6 88 -7 46 -3 8 -126 -58 -187 -174 -158 -435 44 -332 258 51
108 164 148 281 99z m3305 7 c58 -20 116 -102 91 -127 -23 -23 -86 -12 -98 18
-15 39 -107 40 -107 2 0 -16 34 -40 75 -53 98 -31 145 -74 145 -132 0 -151
-287 -175 -326 -28 -13 51 72 58 119 11 35 -35 47 -36 87 -9 35 23 -21 79 -79
79 -127 0 -171 180 -56 230 80 35 76 35 149 9z m-4334 -108 c0 -138 27 -211
79 -211 57 0 81 60 81 199 0 116 2 121 50 121 91 0 68 -321 -28 -394 -42 -32
-163 -32 -206 1 -92 70 -113 393 -26 393 47 0 50 -6 50 -109z m639 56 c51 -65
52 -108 2 -171 -38 -49 -38 -50 0 -113 50 -82 50 -83 -18 -83 -44 0 -65 15
-94 70 -21 39 -50 70 -64 70 -15 0 -25 -27 -25 -70 0 -61 -6 -70 -50 -70 l-50
0 0 210 0 210 129 0 c115 0 132 -6 170 -53z m861 13 c0 -34 -13 -40 -90 -40
-77 0 -90 -6 -90 -40 0 -33 13 -40 80 -40 67 0 80 -7 80 -40 0 -33 -13 -40
-80 -40 -67 0 -80 -7 -80 -40 0 -34 13 -40 90 -40 83 0 90 -4 90 -50 0 -49 -4
-50 -140 -50 l-140 0 0 210 0 210 140 0 c127 0 140 -4 140 -40z m235 -65 l75
-104 6 104 c6 102 8 105 66 105 l59 0 -5 -205 c-8 -262 -44 -284 -168 -103
l-78 114 -10 -108 c-9 -99 -14 -108 -60 -108 -50 0 -50 1 -56 205 l-5 205 50
0 c39 0 69 -26 126 -105z m605 55 c0 -42 -9 -50 -60 -50 l-60 0 0 -160 c0
-157 -1 -160 -50 -160 -49 0 -50 3 -50 160 l0 160 -70 0 c-61 0 -70 6 -70 50
0 50 1 50 180 50 179 0 180 0 180 -50z m370 -65 l80 -115 6 115 c6 108 9 115
56 115 l49 0 -5 -205 c-8 -261 -41 -281 -166 -100 l-80 115 -6 -115 c-6 -107
-9 -115 -55 -115 -49 0 -49 0 -49 210 0 264 37 285 170 95z m550 75 c0 -34
-13 -40 -90 -40 -77 0 -90 -6 -90 -40 0 -33 13 -40 80 -40 67 0 80 -7 80 -40
0 -33 -13 -40 -80 -40 -67 0 -80 -7 -80 -40 0 -34 13 -40 90 -40 83 0 90 -4
90 -50 0 -49 -4 -50 -140 -50 l-140 0 0 210 0 210 140 0 c127 0 140 -4 140
-40z m360 0 c0 -34 -13 -40 -90 -40 -77 0 -90 -6 -90 -40 0 -33 13 -40 80 -40
67 0 80 -7 80 -40 0 -33 -13 -40 -80 -40 -67 0 -80 -7 -80 -40 0 -34 13 -40
90 -40 83 0 90 -4 90 -50 0 -49 -4 -50 -140 -50 l-140 0 0 210 0 210 140 0
c127 0 140 -4 140 -40z m382 -16 c170 -152 22 -382 -232 -361 l-80 7 -6 205
-5 205 130 0 c115 0 138 -7 193 -56z m-3444 -613 c54 -28 91 -95 66 -120 -22
-22 -86 -10 -97 19 -15 39 -107 40 -107 2 0 -16 34 -40 75 -53 96 -31 145 -74
145 -127 -1 -154 -286 -182 -326 -33 -9 34 -1 41 48 41 32 0 58 -8 58 -18 0
-34 67 -43 97 -14 26 26 23 33 -29 53 -149 58 -158 67 -158 149 0 117 107 164
228 101z m406 -24 c49 -45 47 -107 -5 -107 -22 0 -45 14 -52 30 -6 17 -32 30
-58 30 -88 0 -71 -40 38 -88 116 -51 150 -102 114 -171 -48 -88 -181 -108
-268 -40 -97 77 -24 144 74 70 20 -16 50 -23 65 -17 54 20 27 65 -52 86 -103
28 -155 100 -123 171 41 91 185 110 267 36z m560 0 c48 -44 47 -107 -2 -107
-20 0 -48 14 -62 30 -28 34 -92 40 -110 10 -7 -11 37 -41 97 -68 147 -65 171
-169 54 -232 -92 -49 -261 15 -261 99 0 30 83 25 127 -8 20 -16 50 -23 65 -17
54 20 27 65 -52 86 -103 28 -155 100 -123 171 41 91 185 110 267 36z m1645 25
c107 -45 150 -152 61 -152 -27 0 -50 9 -50 20 0 12 -22 31 -49 43 -75 35 -151
-22 -151 -113 0 -107 117 -150 190 -70 37 41 130 56 130 20 0 -134 -277 -204
-372 -94 -160 186 17 439 241 346z m-2963 -187 c41 -107 75 -202 74 -210 -1
-35 -98 -13 -110 25 -10 31 -30 40 -91 40 -57 0 -83 -11 -99 -40 -23 -43 -100
-55 -100 -15 0 13 33 108 73 210 105 265 147 263 253 -10z m974 -15 l0 -210
-50 0 -50 0 0 210 0 210 50 0 50 0 0 -210z m780 160 c0 -42 -9 -50 -59 -50
l-59 0 -6 -155 c-6 -143 -9 -155 -51 -161 -43 -7 -45 -1 -45 153 l0 160 -65 7
c-50 5 -66 17 -71 51 -7 44 -2 45 175 45 180 0 181 0 181 -50z m360 -150 c42
-104 72 -197 67 -205 -18 -30 -86 -14 -107 25 -16 29 -42 40 -98 40 -61 0 -80
-9 -88 -40 -9 -34 -114 -63 -114 -32 0 13 139 374 152 395 44 72 114 4 188
-183z m298 85 l82 -115 0 115 c0 109 2 115 50 115 l50 0 0 -210 c0 -263 -30
-279 -164 -88 l-86 121 -6 -123 c-6 -113 -9 -122 -50 -116 -42 6 -44 17 -50
211 l-5 205 49 0 c37 0 69 -28 130 -115z m1022 75 c0 -34 -13 -40 -90 -40 -77
0 -90 -6 -90 -40 0 -33 13 -40 80 -40 67 0 80 -7 80 -40 0 -33 -13 -40 -80
-40 -67 0 -80 -7 -80 -40 0 -34 13 -40 90 -40 83 0 90 -4 90 -50 0 -49 -4 -50
-140 -50 l-140 0 0 210 0 210 140 0 c127 0 140 -4 140 -40z m-2575 -679 c77
-87 76 -197 -3 -286 -131 -146 -382 -52 -382 143 0 202 249 295 385 143z m404
51 c58 -25 111 -82 111 -121 0 -23 -79 -10 -136 23 -117 67 -230 -51 -156
-164 36 -54 126 -68 168 -26 38 38 28 50 -36 40 -54 -8 -60 -3 -60 44 0 63
210 83 233 22 61 -161 -234 -298 -363 -169 -175 175 10 446 239 351z m-1275
-35 c93 -88 40 -228 -95 -249 -66 -11 -79 -21 -79 -61 0 -39 -10 -47 -60 -47
l-60 0 0 200 0 200 124 0 c99 0 132 -9 170 -43z m396 3 c45 -50 47 -148 4
-196 -30 -33 -30 -40 6 -100 l39 -64 -60 0 c-47 0 -69 14 -95 60 -44 77 -84
77 -84 0 0 -51 -8 -60 -50 -60 -50 0 -50 0 -50 200 l0 200 127 0 c102 0 134
-8 163 -40z m1369 -13 c51 -65 52 -108 2 -171 -38 -49 -38 -50 0 -113 l38 -63
-58 0 c-44 0 -68 15 -94 60 -20 33 -47 60 -61 60 -16 0 -26 -24 -26 -60 0 -51
-8 -60 -50 -60 -50 0 -50 0 -50 200 l0 200 129 0 c115 0 132 -6 170 -53z m395
-112 c34 -91 69 -181 76 -200 12 -28 4 -35 -38 -35 -30 0 -58 14 -65 30 -7 20
-38 30 -90 30 -51 0 -82 -10 -90 -30 -6 -17 -36 -30 -68 -30 l-56 0 81 200
c111 274 157 280 250 35z m288 75 c80 -111 81 -111 151 0 104 165 147 132 147
-110 0 -200 0 -200 -50 -200 -47 0 -50 6 -50 104 l0 104 -55 -65 c-62 -74 -98
-71 -150 12 l-34 55 0 -105 c-1 -102 -3 -105 -58 -105 l-57 0 2 200 c1 242 39
270 154 110z"/>
<path d="M1820 4020 c0 -22 13 -40 30 -40 17 0 30 18 30 40 0 22 -13 40 -30
40 -17 0 -30 -18 -30 -40z"/>
<path d="M1746 2890 c-125 -63 -213 -184 -248 -340 -34 -153 -23 -170 107
-156 82 8 115 3 139 -20 28 -29 36 -26 88 30 103 109 266 142 385 77 15 -8 60
-3 100 11 170 61 427 30 524 -64 51 -48 56 -48 285 -35 l234 13 -1 72 c-6 486
-605 615 -831 178 -16 -30 -52 -61 -82 -69 -56 -14 -61 -10 -192 161 -136 176
-332 231 -508 142z"/>
<path d="M1821 2318 c-172 -151 -204 -218 -106 -218 89 0 487 313 438 345 -80
50 -171 16 -332 -127z"/>
<path d="M2269 2410 c-54 -27 -167 -110 -251 -185 -84 -74 -166 -144 -184
-155 -23 -15 -33 -59 -38 -169 l-6 -148 120 5 c157 6 366 -28 543 -89 79 -27
160 -48 180 -47 23 1 13 9 -23 21 -183 60 -203 113 -25 65 117 -31 334 -38
265 -8 -22 9 -110 33 -196 52 -85 19 -160 41 -165 50 -23 37 40 33 261 -16
229 -51 285 -50 304 6 3 10 -100 44 -231 74 -224 52 -329 95 -300 124 7 7 74
-6 150 -29 269 -80 382 -99 419 -72 51 37 22 63 -127 112 -440 145 -555 328
-235 372 l92 13 -56 37 c-90 59 -368 52 -497 -13z"/>
<path d="M1416 2004 l6 -346 154 6 154 6 6 185 c5 173 3 185 -34 185 -110 0
-125 122 -27 225 68 71 56 79 -119 82 l-146 3 6 -346z"/>
<path d="M1767 1650 c-32 -69 28 -69 93 0 l47 50 -59 0 c-42 0 -64 -14 -81
-50z"/>
<path d="M1954 1687 c-45 -44 41 -60 97 -18 37 28 36 30 -23 30 -34 1 -67 -5
-74 -12z"/>
<path d="M2915 1658 c-23 -25 -62 -38 -115 -38 -44 0 -80 -9 -80 -20 0 -37
-189 -20 -330 30 -161 56 -235 62 -269 21 -39 -47 -157 -79 -190 -52 -17 14
-32 16 -39 4 -15 -24 192 -207 385 -340 l148 -101 122 82 c163 109 364 280
471 401 l49 55 -59 -2 c-32 -1 -74 -19 -93 -40z"/>
<path d="M4320 2759 c0 -55 6 -61 55 -55 97 11 79 115 -20 116 -26 0 -35 -16
-35 -61z"/>
<path d="M7660 2690 c0 -122 40 -146 136 -79 92 65 46 189 -70 189 l-66 0 0
-110z"/>
<path d="M3932 2048 c-20 -53 -14 -68 30 -68 30 0 39 9 30 32 -7 17 -12 40
-12 50 0 30 -35 20 -48 -14z"/>
<path d="M6043 2040 c-19 -56 -18 -60 27 -60 45 0 46 4 27 60 -12 33 -24 60
-27 60 -3 0 -15 -27 -27 -60z"/>
<path d="M4700 1460 c-22 -22 -40 -58 -40 -80 0 -22 18 -58 40 -80 22 -22 58
-40 80 -40 22 0 58 18 80 40 22 22 40 58 40 80 0 22 -18 58 -40 80 -22 22 -58
40 -80 40 -22 0 -58 -18 -80 -40z"/>
<path d="M3900 1440 c0 -51 8 -60 51 -60 59 0 84 47 49 90 -45 54 -100 37
-100 -30z"/>
<path d="M4280 1441 c0 -45 9 -61 35 -61 99 1 117 105 20 116 -49 6 -55 0 -55
-55z"/>
<path d="M5640 1440 c0 -50 8 -60 49 -60 59 0 101 62 66 97 -49 49 -115 28
-115 -37z"/>
<path d="M6086 1380 c-21 -57 -20 -60 27 -60 42 0 48 7 36 45 -22 74 -39 78
-63 15z"/>
</g>
</svg>
